<svg xmlns="http://www.w3.org/2000/svg" xmlns:xlink="http://www.w3.org/1999/xlink" width="500" zoomAndPan="magnify" viewBox="0 0 375 374.999991" height="500" preserveAspectRatio="xMidYMid meet" version="1.0"><defs><g/><clipPath id="a13f02457f"><path d="M 252 165.78125 L 323 165.78125 L 323 225 L 252 225 Z M 252 165.78125 " clip-rule="nonzero"/></clipPath><clipPath id="3c185d660e"><path d="M 319.726562 165.839844 C 324.683594 182.257812 270.820312 205.222656 252.558594 213.546875 L 252.667969 215.550781 C 252.859375 219.039062 254.121094 222.140625 256.195312 224.972656 C 311.546875 201.238281 329.144531 185.472656 319.726562 165.839844 Z M 319.726562 165.839844 " clip-rule="nonzero"/></clipPath><clipPath id="e3ba6d105d"><path d="M 257 177 L 328 177 L 328 236 L 257 236 Z M 257 177 " clip-rule="nonzero"/></clipPath><clipPath id="9b86260d70"><path d="M 324.296875 180.171875 C 320.644531 199.242188 282.921875 216.941406 257.890625 227.183594 L 257.878906 227.1875 C 260.964844 230.046875 264.902344 232.640625 269.386719 235.121094 C 320.121094 212.828125 333.566406 196.648438 324.710938 177.769531 C 324.617188 178.585938 324.480469 179.386719 324.296875 180.171875 Z M 324.296875 180.171875 " clip-rule="evenodd"/></clipPath><clipPath id="7fdeaee53a"><path d="M 247 215 L 340 215 L 340 315 L 247 315 Z M 247 215 " clip-rule="nonzero"/></clipPath><clipPath id="91fcd3a799"><path d="M 289.765625 263.632812 C 257.578125 250.128906 239.9375 234.726562 249.96875 215.699219 C 251.992188 253.121094 356.875 248.386719 336.886719 314.082031 C 334 284.917969 310.890625 274.566406 289.765625 263.632812 Z M 289.765625 263.632812 " clip-rule="evenodd"/></clipPath><linearGradient x1="-10.520022" gradientTransform="matrix(0.15273, 0, 0, 0.15273, 241.542429, 165.837976)" y1="648.547" x2="755.12999" gradientUnits="userSpaceOnUse" y2="648.547" id="635616a339"><stop stop-opacity="1" stop-color="rgb(100%, 74.099731%, 34.899902%)" offset="0"/><stop stop-opacity="1" stop-color="rgb(100%, 74.090576%, 34.896851%)" offset="0.0625"/><stop stop-opacity="1" stop-color="rgb(100%, 73.912048%, 34.848022%)" offset="0.078125"/><stop stop-opacity="1" stop-color="rgb(100%, 73.571777%, 34.754944%)" offset="0.09375"/><stop stop-opacity="1" stop-color="rgb(100%, 73.231506%, 34.661865%)" offset="0.109375"/><stop stop-opacity="1" stop-color="rgb(100%, 72.889709%, 34.568787%)" offset="0.125"/><stop stop-opacity="1" stop-color="rgb(100%, 72.549438%, 34.475708%)" offset="0.140625"/><stop stop-opacity="1" stop-color="rgb(100%, 72.209167%, 34.382629%)" offset="0.15625"/><stop stop-opacity="1" stop-color="rgb(100%, 71.868896%, 34.289551%)" offset="0.171875"/><stop stop-opacity="1" stop-color="rgb(100%, 71.5271%, 34.196472%)" offset="0.1875"/><stop stop-opacity="1" stop-color="rgb(100%, 71.186829%, 34.103394%)" offset="0.203125"/><stop stop-opacity="1" stop-color="rgb(100%, 70.846558%, 34.010315%)" offset="0.21875"/><stop stop-opacity="1" stop-color="rgb(100%, 70.506287%, 33.917236%)" offset="0.234375"/><stop stop-opacity="1" stop-color="rgb(100%, 70.16449%, 33.824158%)" offset="0.25"/><stop stop-opacity="1" stop-color="rgb(100%, 69.824219%, 33.731079%)" offset="0.265625"/><stop stop-opacity="1" stop-color="rgb(100%, 69.483948%, 33.638%)" offset="0.28125"/><stop stop-opacity="1" stop-color="rgb(100%, 69.143677%, 33.544922%)" offset="0.296875"/><stop stop-opacity="1" stop-color="rgb(100%, 68.803406%, 33.451843%)" offset="0.3125"/><stop stop-opacity="1" stop-color="rgb(100%, 68.461609%, 33.358765%)" offset="0.328125"/><stop stop-opacity="1" stop-color="rgb(100%, 68.121338%, 33.265686%)" offset="0.34375"/><stop stop-opacity="1" stop-color="rgb(100%, 67.781067%, 33.172607%)" offset="0.359375"/><stop stop-opacity="1" stop-color="rgb(100%, 67.440796%, 33.079529%)" offset="0.375"/><stop stop-opacity="1" stop-color="rgb(100%, 67.098999%, 32.98645%)" offset="0.390625"/><stop stop-opacity="1" stop-color="rgb(100%, 66.758728%, 32.893372%)" offset="0.40625"/><stop stop-opacity="1" stop-color="rgb(100%, 66.418457%, 32.800293%)" offset="0.421875"/><stop stop-opacity="1" stop-color="rgb(100%, 66.078186%, 32.707214%)" offset="0.4375"/><stop stop-opacity="1" stop-color="rgb(100%, 65.736389%, 32.614136%)" offset="0.453125"/><stop stop-opacity="1" stop-color="rgb(100%, 65.396118%, 32.521057%)" offset="0.46875"/><stop stop-opacity="1" stop-color="rgb(100%, 65.055847%, 32.427979%)" offset="0.484375"/><stop stop-opacity="1" stop-color="rgb(100%, 64.715576%, 32.3349%)" offset="0.5"/><stop stop-opacity="1" stop-color="rgb(100%, 64.373779%, 32.241821%)" offset="0.515625"/><stop stop-opacity="1" stop-color="rgb(100%, 64.033508%, 32.148743%)" offset="0.53125"/><stop stop-opacity="1" stop-color="rgb(100%, 63.693237%, 32.055664%)" offset="0.546875"/><stop stop-opacity="1" stop-color="rgb(100%, 63.352966%, 31.962585%)" offset="0.5625"/><stop stop-opacity="1" stop-color="rgb(100%, 63.011169%, 31.869507%)" offset="0.578125"/><stop stop-opacity="1" stop-color="rgb(100%, 62.670898%, 31.776428%)" offset="0.59375"/><stop stop-opacity="1" stop-color="rgb(100%, 62.330627%, 31.68335%)" offset="0.609375"/><stop stop-opacity="1" stop-color="rgb(100%, 61.990356%, 31.590271%)" offset="0.625"/><stop stop-opacity="1" stop-color="rgb(100%, 61.650085%, 31.497192%)" offset="0.640625"/><stop stop-opacity="1" stop-color="rgb(100%, 61.308289%, 31.404114%)" offset="0.65625"/><stop stop-opacity="1" stop-color="rgb(100%, 60.968018%, 31.311035%)" offset="0.671875"/><stop stop-opacity="1" stop-color="rgb(100%, 60.627747%, 31.217957%)" offset="0.6875"/><stop stop-opacity="1" stop-color="rgb(100%, 60.287476%, 31.124878%)" offset="0.703125"/><stop stop-opacity="1" stop-color="rgb(100%, 59.945679%, 31.031799%)" offset="0.71875"/><stop stop-opacity="1" stop-color="rgb(100%, 59.605408%, 30.938721%)" offset="0.734375"/><stop stop-opacity="1" stop-color="rgb(100%, 59.265137%, 30.845642%)" offset="0.75"/><stop stop-opacity="1" stop-color="rgb(100%, 58.924866%, 30.752563%)" offset="0.765625"/><stop stop-opacity="1" stop-color="rgb(100%, 58.583069%, 30.659485%)" offset="0.78125"/><stop stop-opacity="1" stop-color="rgb(100%, 58.242798%, 30.566406%)" offset="0.796875"/><stop stop-opacity="1" stop-color="rgb(100%, 57.902527%, 30.473328%)" offset="0.8125"/><stop stop-opacity="1" stop-color="rgb(100%, 57.562256%, 30.380249%)" offset="0.828125"/><stop stop-opacity="1" stop-color="rgb(100%, 57.220459%, 30.28717%)" offset="0.84375"/><stop stop-opacity="1" stop-color="rgb(100%, 56.974792%, 30.220032%)" offset="0.875"/><stop stop-opacity="1" stop-color="rgb(100%, 56.898499%, 30.198669%)" offset="1"/></linearGradient><clipPath id="70e6f3c70b"><path d="M 241 228 L 334 228 L 334 330.78125 L 241 330.78125 Z M 241 228 " clip-rule="nonzero"/></clipPath><clipPath id="954c006552"><path d="M 244.886719 228.632812 C 249.535156 269.871094 353.28125 266.757812 329.839844 330.425781 C 324.175781 273.25 221.964844 272.105469 244.886719 228.632812 Z M 244.886719 228.632812 " clip-rule="evenodd"/></clipPath><linearGradient x1="-128.190025" gradientTransform="matrix(0.15273, 0, 0, 0.15273, 241.542429, 165.837976)" y1="744.40198" x2="731.600029" gradientUnits="userSpaceOnUse" y2="744.40198" id="be48986a02"><stop stop-opacity="1" stop-color="rgb(100%, 74.099731%, 34.899902%)" offset="0"/><stop stop-opacity="1" stop-color="rgb(100%, 74.099731%, 34.899902%)" offset="0.125"/><stop stop-opacity="1" stop-color="rgb(100%, 74.01123%, 34.875488%)" offset="0.15625"/><stop stop-opacity="1" stop-color="rgb(100%, 73.730469%, 34.797668%)" offset="0.171875"/><stop stop-opacity="1" stop-color="rgb(100%, 73.345947%, 34.692383%)" offset="0.1875"/><stop stop-opacity="1" stop-color="rgb(100%, 72.961426%, 34.587097%)" offset="0.203125"/><stop stop-opacity="1" stop-color="rgb(100%, 72.576904%, 34.481812%)" offset="0.21875"/><stop stop-opacity="1" stop-color="rgb(100%, 72.192383%, 34.378052%)" offset="0.234375"/><stop stop-opacity="1" stop-color="rgb(100%, 71.807861%, 34.272766%)" offset="0.25"/><stop stop-opacity="1" stop-color="rgb(100%, 71.421814%, 34.16748%)" offset="0.265625"/><stop stop-opacity="1" stop-color="rgb(100%, 71.037292%, 34.062195%)" offset="0.28125"/><stop stop-opacity="1" stop-color="rgb(100%, 70.652771%, 33.956909%)" offset="0.296875"/><stop stop-opacity="1" stop-color="rgb(100%, 70.26825%, 33.851624%)" offset="0.3125"/><stop stop-opacity="1" stop-color="rgb(100%, 69.883728%, 33.746338%)" offset="0.328125"/><stop stop-opacity="1" stop-color="rgb(100%, 69.499207%, 33.641052%)" offset="0.34375"/><stop stop-opacity="1" stop-color="rgb(100%, 69.114685%, 33.535767%)" offset="0.359375"/><stop stop-opacity="1" stop-color="rgb(100%, 68.730164%, 33.432007%)" offset="0.375"/><stop stop-opacity="1" stop-color="rgb(100%, 68.345642%, 33.326721%)" offset="0.390625"/><stop stop-opacity="1" stop-color="rgb(100%, 67.959595%, 33.221436%)" offset="0.40625"/><stop stop-opacity="1" stop-color="rgb(100%, 67.575073%, 33.11615%)" offset="0.421875"/><stop stop-opacity="1" stop-color="rgb(100%, 67.190552%, 33.010864%)" offset="0.4375"/><stop stop-opacity="1" stop-color="rgb(100%, 66.80603%, 32.905579%)" offset="0.453125"/><stop stop-opacity="1" stop-color="rgb(100%, 66.421509%, 32.800293%)" offset="0.46875"/><stop stop-opacity="1" stop-color="rgb(100%, 66.036987%, 32.695007%)" offset="0.484375"/><stop stop-opacity="1" stop-color="rgb(100%, 65.652466%, 32.589722%)" offset="0.5"/><stop stop-opacity="1" stop-color="rgb(100%, 65.267944%, 32.485962%)" offset="0.515625"/><stop stop-opacity="1" stop-color="rgb(100%, 64.883423%, 32.380676%)" offset="0.53125"/><stop stop-opacity="1" stop-color="rgb(100%, 64.497375%, 32.275391%)" offset="0.546875"/><stop stop-opacity="1" stop-color="rgb(100%, 64.112854%, 32.170105%)" offset="0.5625"/><stop stop-opacity="1" stop-color="rgb(100%, 63.728333%, 32.064819%)" offset="0.578125"/><stop stop-opacity="1" stop-color="rgb(100%, 63.343811%, 31.959534%)" offset="0.59375"/><stop stop-opacity="1" stop-color="rgb(100%, 62.95929%, 31.854248%)" offset="0.609375"/><stop stop-opacity="1" stop-color="rgb(100%, 62.574768%, 31.748962%)" offset="0.625"/><stop stop-opacity="1" stop-color="rgb(100%, 62.190247%, 31.643677%)" offset="0.640625"/><stop stop-opacity="1" stop-color="rgb(100%, 61.805725%, 31.539917%)" offset="0.65625"/><stop stop-opacity="1" stop-color="rgb(100%, 61.421204%, 31.434631%)" offset="0.671875"/><stop stop-opacity="1" stop-color="rgb(100%, 61.035156%, 31.329346%)" offset="0.6875"/><stop stop-opacity="1" stop-color="rgb(100%, 60.650635%, 31.22406%)" offset="0.703125"/><stop stop-opacity="1" stop-color="rgb(100%, 60.266113%, 31.118774%)" offset="0.71875"/><stop stop-opacity="1" stop-color="rgb(100%, 59.881592%, 31.013489%)" offset="0.734375"/><stop stop-opacity="1" stop-color="rgb(100%, 59.49707%, 30.908203%)" offset="0.75"/><stop stop-opacity="1" stop-color="rgb(100%, 59.112549%, 30.802917%)" offset="0.765625"/><stop stop-opacity="1" stop-color="rgb(100%, 58.728027%, 30.697632%)" offset="0.78125"/><stop stop-opacity="1" stop-color="rgb(100%, 58.343506%, 30.593872%)" offset="0.796875"/><stop stop-opacity="1" stop-color="rgb(100%, 57.958984%, 30.488586%)" offset="0.8125"/><stop stop-opacity="1" stop-color="rgb(100%, 57.574463%, 30.383301%)" offset="0.828125"/><stop stop-opacity="1" stop-color="rgb(100%, 57.188416%, 30.278015%)" offset="0.84375"/><stop stop-opacity="1" stop-color="rgb(100%, 56.947327%, 30.212402%)" offset="0.875"/><stop stop-opacity="1" stop-color="rgb(100%, 56.898499%, 30.198669%)" offset="1"/></linearGradient></defs><rect x="-37.5" width="450" fill="#ffffff" y="-37.499999" height="449.999989" fill-opacity="1"/><rect x="-37.5" width="450" fill="#ffffff" y="-37.499999" height="449.999989" fill-opacity="1"/><path stroke-linecap="butt" transform="matrix(1.329939, 0, 0, 1.329939, 0.0000045, -126.353049)" fill="none" stroke-linejoin="miter" d="M 158.712646 141.687021 C 159.846392 141.687021 161.027132 142.065916 162.254867 142.820767 C 163.482602 143.669608 164.569353 144.615375 165.515121 145.655131 C 166.366898 146.694888 167.074755 147.828633 167.641628 149.056368 C 168.208501 150.096125 168.396479 151.088887 168.208501 152.031717 L 155.311409 211.130414 L 120.729228 189.448262 L 124.41537 172.016188 L 96.353696 172.016188 L 75.238416 268.528493 L 103.297154 268.528493 L 110.525517 236.075757 L 145.107698 257.898893 L 136.037732 298.857659 L 40.94114 298.857659 C 39.901384 298.857659 38.720643 298.481702 37.395982 297.723914 C 36.829109 297.25103 36.285733 296.804581 35.765855 296.378692 C 35.248914 295.952803 34.752533 295.456422 34.27965 294.88955 C 33.239893 293.943782 32.532037 292.810037 32.153142 291.488312 C 31.586269 290.448556 31.398291 289.458731 31.586269 288.512964 L 63.616054 141.687021 Z M 158.712646 141.687021 " stroke="#ffffff" stroke-width="11.247381" stroke-opacity="1" stroke-miterlimit="4"/><g fill="#000000" fill-opacity="1"><g transform="translate(35.222605, 271.298679)"><g><path d="M 175.859375 -209.21875 C 177.367188 -209.21875 178.9375 -208.710938 180.5625 -207.703125 C 182.195312 -206.578125 183.644531 -205.320312 184.90625 -203.9375 C 186.03125 -202.550781 186.972656 -201.046875 187.734375 -199.421875 C 188.484375 -198.035156 188.734375 -196.710938 188.484375 -195.453125 L 171.328125 -116.859375 L 125.34375 -145.703125 L 130.25 -168.875 L 92.921875 -168.875 L 64.84375 -40.53125 L 102.15625 -40.53125 L 111.765625 -83.6875 L 157.765625 -54.65625 L 145.703125 -0.1875 L 19.21875 -0.1875 C 17.84375 -0.1875 16.273438 -0.691406 14.515625 -1.703125 C 13.753906 -2.328125 13.03125 -2.921875 12.34375 -3.484375 C 11.65625 -4.046875 10.992188 -4.707031 10.359375 -5.46875 C 8.984375 -6.71875 8.046875 -8.222656 7.546875 -9.984375 C 6.785156 -11.367188 6.53125 -12.691406 6.78125 -13.953125 L 49.390625 -209.21875 Z M 175.859375 -209.21875 "/></g></g></g><path stroke-linecap="butt" transform="matrix(1.329939, 0, 0, 1.329939, 147.839481, -126.353049)" fill="none" stroke-linejoin="miter" d="M 19.476614 298.857659 C 18.342868 298.857659 17.162128 298.431771 15.931456 297.58293 C 14.79771 296.828078 13.760891 295.929306 12.815124 294.88955 C 11.963346 293.849793 11.208494 292.716047 10.547632 291.488312 C 10.359654 290.92144 10.192235 290.378064 10.051251 289.858186 C 9.910267 289.338308 9.933765 288.888921 10.121743 288.512964 L 22.736867 230.407028 L 57.457095 251.948197 L 53.77389 268.528493 L 81.835565 268.528493 L 86.226626 248.262055 L 27.838723 207.447209 L 42.151528 141.687021 L 137.533025 141.687021 C 138.76076 141.687021 139.941501 142.065916 141.075246 142.820767 C 142.208992 143.575618 143.248748 144.474391 144.191578 145.514147 C 145.043356 146.553904 145.798208 147.68765 146.45907 148.915385 C 146.837964 150.14312 146.978948 151.182876 146.884959 152.031717 L 134.980629 206.313464 L 100.257464 184.769358 L 102.950844 172.016188 L 75.315058 172.016188 L 72.054805 186.895866 L 130.304662 227.854632 L 114.855174 298.857659 Z M 19.476614 298.857659 " stroke="#ffffff" stroke-width="11.247381" stroke-opacity="1" stroke-miterlimit="4"/><g fill="#ffbd59" fill-opacity="1"><g transform="translate(153.761865, 271.298679)"><g><path d="M 19.984375 -0.1875 C 18.472656 -0.1875 16.898438 -0.753906 15.265625 -1.890625 C 13.753906 -2.890625 12.375 -4.082031 11.125 -5.46875 C 9.988281 -6.851562 8.984375 -8.359375 8.109375 -9.984375 C 7.859375 -10.742188 7.632812 -11.46875 7.4375 -12.15625 C 7.25 -12.84375 7.285156 -13.441406 7.546875 -13.953125 L 24.3125 -91.21875 L 70.5 -62.578125 L 65.59375 -40.53125 L 102.90625 -40.53125 L 108.75 -67.484375 L 31.09375 -121.765625 L 50.140625 -209.21875 L 176.984375 -209.21875 C 178.617188 -209.21875 180.191406 -208.710938 181.703125 -207.703125 C 183.203125 -206.703125 184.582031 -205.507812 185.84375 -204.125 C 186.976562 -202.75 187.984375 -201.242188 188.859375 -199.609375 C 189.359375 -197.972656 189.546875 -196.585938 189.421875 -195.453125 L 173.59375 -123.265625 L 127.421875 -151.921875 L 131 -168.875 L 94.234375 -168.875 L 89.90625 -149.09375 L 167.375 -94.625 L 146.828125 -0.1875 Z M 19.984375 -0.1875 "/></g></g></g><g fill="#ffbd59" fill-opacity="1"><g transform="translate(62.119811, 266.688963)"><g><path d="M -16.0625 -20.609375 C -16.03125 -20.742188 -15.957031 -20.878906 -15.84375 -21.015625 C -15.6875 -21.140625 -15.523438 -21.25 -15.359375 -21.34375 C -15.210938 -21.425781 -15.050781 -21.484375 -14.875 -21.515625 C -14.726562 -21.554688 -14.601562 -21.550781 -14.5 -21.5 L -7.421875 -18.140625 L -11.171875 -14.4375 L -13.265625 -15.390625 L -14.09375 -11.859375 L -2.546875 -6.40625 L -1.734375 -9.9375 L -5.609375 -11.796875 L -1.859375 -15.5 L 3.03125 -13.15625 L 0.265625 -1.1875 C 0.234375 -1.0625 0.144531 -0.925781 0 -0.78125 C -0.0703125 -0.726562 -0.140625 -0.671875 -0.203125 -0.609375 C -0.265625 -0.554688 -0.34375 -0.507812 -0.4375 -0.46875 C -0.59375 -0.375 -0.753906 -0.320312 -0.921875 -0.3125 C -1.066406 -0.269531 -1.203125 -0.273438 -1.328125 -0.328125 L -18.84375 -8.640625 Z M -16.0625 -20.609375 "/></g></g></g><g fill="#ffbd59" fill-opacity="1"><g transform="translate(66.164311, 249.270616)"><g><path d="M -18.84375 -8.65625 L -16.0625 -20.625 C -16.019531 -20.78125 -15.941406 -20.914062 -15.828125 -21.03125 C -15.753906 -21.113281 -15.679688 -21.175781 -15.609375 -21.21875 C -15.535156 -21.257812 -15.460938 -21.304688 -15.390625 -21.359375 C -15.222656 -21.441406 -15.054688 -21.5 -14.890625 -21.53125 C -14.722656 -21.570312 -14.59375 -21.570312 -14.5 -21.53125 L 3.046875 -13.1875 L 0.265625 -1.21875 C 0.234375 -1.070312 0.140625 -0.9375 -0.015625 -0.8125 C -0.128906 -0.6875 -0.265625 -0.582031 -0.421875 -0.5 C -0.585938 -0.425781 -0.753906 -0.363281 -0.921875 -0.3125 C -0.992188 -0.3125 -1.066406 -0.304688 -1.140625 -0.296875 C -1.210938 -0.296875 -1.273438 -0.3125 -1.328125 -0.34375 Z M -2.546875 -6.421875 L -1.71875 -9.953125 L -13.265625 -15.421875 L -14.078125 -11.890625 Z M -2.546875 -6.421875 "/></g></g></g><g fill="#ffbd59" fill-opacity="1"><g transform="translate(70.3744, 231.139133)"><g><path d="M 0.265625 -1.21875 C 0.234375 -1.070312 0.140625 -0.9375 -0.015625 -0.8125 C -0.128906 -0.6875 -0.265625 -0.582031 -0.421875 -0.5 C -0.585938 -0.425781 -0.753906 -0.363281 -0.921875 -0.3125 C -0.992188 -0.3125 -1.066406 -0.304688 -1.140625 -0.296875 C -1.210938 -0.296875 -1.273438 -0.3125 -1.328125 -0.34375 L -8.25 -3.625 L -4.53125 -7.375 L -2.546875 -6.421875 L -1.71875 -9.953125 L -4.140625 -11.09375 L -10.984375 -4.9375 L -18.84375 -8.65625 L -16.046875 -20.65625 C -16.015625 -20.8125 -15.941406 -20.953125 -15.828125 -21.078125 C -15.679688 -21.203125 -15.535156 -21.300781 -15.390625 -21.375 C -15.222656 -21.457031 -15.054688 -21.519531 -14.890625 -21.5625 C -14.722656 -21.582031 -14.59375 -21.578125 -14.5 -21.546875 L -8 -18.4375 L -11.734375 -14.71875 L -13.265625 -15.421875 L -14.078125 -11.9375 L -12.296875 -11.109375 L -5.4375 -17.234375 L 3.046875 -13.203125 Z M 0.265625 -1.21875 "/></g></g></g><g clip-path="url(#a13f02457f)"><g clip-path="url(#3c185d660e)"><path fill="#ffde59" d="M 252.558594 165.839844 L 252.558594 224.972656 L 329.144531 224.972656 L 329.144531 165.839844 Z M 252.558594 165.839844 " fill-opacity="1" fill-rule="nonzero"/></g></g><g clip-path="url(#e3ba6d105d)"><g clip-path="url(#9b86260d70)"><path fill="#ffde59" d="M 257.878906 177.769531 L 257.878906 235.121094 L 333.566406 235.121094 L 333.566406 177.769531 Z M 257.878906 177.769531 " fill-opacity="1" fill-rule="nonzero"/></g></g><g clip-path="url(#7fdeaee53a)"><g clip-path="url(#91fcd3a799)"><path fill="url(#635616a339)" d="M 239.9375 215.699219 L 239.9375 314.082031 L 356.875 314.082031 L 356.875 215.699219 Z M 239.9375 215.699219 " fill-rule="nonzero"/></g></g><g clip-path="url(#70e6f3c70b)"><g clip-path="url(#954c006552)"><path fill="url(#be48986a02)" d="M 221.964844 228.632812 L 221.964844 330.425781 L 353.28125 330.425781 L 353.28125 228.632812 Z M 221.964844 228.632812 " fill-rule="nonzero"/></g></g><g fill="#000000" fill-opacity="1"><g transform="translate(181.118594, 267.157203)"><g><path d="M 0.265625 -1.21875 C 0.222656 -1.070312 0.128906 -0.9375 -0.015625 -0.8125 C -0.128906 -0.6875 -0.269531 -0.578125 -0.4375 -0.484375 C -0.59375 -0.410156 -0.753906 -0.351562 -0.921875 -0.3125 C -0.992188 -0.300781 -1.066406 -0.289062 -1.140625 -0.28125 C -1.210938 -0.28125 -1.273438 -0.296875 -1.328125 -0.328125 L -8.28125 -3.5625 L -4.578125 -7.328125 L -2.59375 -6.390625 L -1.796875 -9.921875 L -4.234375 -11.078125 L -11.03125 -4.859375 L -18.90625 -8.53125 L -16.203125 -20.5625 C -16.171875 -20.71875 -16.085938 -20.851562 -15.953125 -20.96875 C -15.835938 -21.082031 -15.695312 -21.191406 -15.53125 -21.296875 C -15.375 -21.367188 -15.210938 -21.425781 -15.046875 -21.46875 C -14.878906 -21.476562 -14.738281 -21.46875 -14.625 -21.4375 L -8.125 -18.40625 L -11.84375 -14.640625 L -13.359375 -15.34375 L -14.140625 -11.859375 L -12.359375 -11.015625 L -5.546875 -17.203125 L 2.96875 -13.234375 Z M 0.265625 -1.21875 "/></g></g><g transform="translate(185.106814, 249.43639)"><g><path d="M -19.46875 -6.09375 L -17.734375 -13.796875 L 1.109375 -5 L -0.015625 -0.015625 L -16.21875 -7.578125 Z M -19.46875 -6.09375 "/></g></g><g transform="translate(187.237617, 239.968617)"><g><path d="M 1.15625 -5.296875 L 0.03125 -0.3125 L -16.171875 -7.875 L -19.421875 -6.375 L -17.734375 -13.84375 L -9.1875 -14.546875 L -16.78125 -18.078125 L -15.65625 -23.046875 L 2.96875 -14.359375 L 4.4375 -11.046875 L -8.015625 -9.5625 Z M 1.15625 -5.296875 "/></g></g></g></svg>